{
DisplayStrings = (
"="
);
date = "2013-05-07 17:01:52 +0000";
designer = "Shinji Pons";
designerURL = www.shinjipons.com;
familyName = "Modulo 32";
fontMaster = (
{
alignmentZones = (
"{128, 129}",
"{128, 129}",
"{128, 129}",
"{0, -2}",
"{0, -2}"
);
ascender = 128;
capHeight = 128;
customParameters = (
{
name = familyName;
value = "Modulo 32";
}
);
descender = 0;
guideLines = (
{
position = "{-25, 48}";
},
{
angle = 90;
position = "{88, 138}";
},
{
angle = 90;
position = "{56, 135}";
},
{
position = "{-18, 80}";
},
{
angle = 90;
position = "{40, 143}";
},
{
angle = 90;
position = "{104, 136}";
},
{
position = "{-22, 96}";
},
{
position = "{-20, 32}";
},
{
angle = 90;
position = "{136, -22}";
},
{
angle = 90;
position = "{8, -30}";
}
);
horizontalStems = (
32
);
id = "940E2F63-624A-4C3D-A909-721782B4CF41";
verticalStems = (
32
);
weightValue = 22;
widthValue = 128;
xHeight = 128;
}
);
glyphs = (
{
glyphname = A;
lastChange = "2013-06-29 05:08:23 +0100";
layers = (
{
guideLines = (
{
position = "{-9, 59}";
showMeasurement = 1;
},
{
angle = 90;
position = "{73, -10}";
showMeasurement = 1;
}
);
layerId = "940E2F63-624A-4C3D-A909-721782B4CF41";
name = Regular;
paths = (
{
closed = 1;
nodes = (
"8 32 LINE",
"40 32 LINE",
"40 48 LINE",
"8 48 LINE"
);
},
{
closed = 1;
nodes = (
"104 32 LINE",
"136 32 LINE",
"136 96 LINE",
"104 96 LINE"
);
}
);
width = 144;
}
);
unicode = 0041;
},
{
glyphname = B;
lastChange = "2013-06-29 05:09:03 +0100";
layers = (
{
layerId = "940E2F63-624A-4C3D-A909-721782B4CF41";
name = Regular;
paths = (
{
closed = 1;
nodes = (
"8 32 LINE",
"40 32 LINE",
"40 96 LINE",
"8 96 LINE"
);
},
{
closed = 1;
nodes = (
"104 32 LINE",
"136 32 LINE",
"136 96 LINE",
"104 96 LINE"
);
}
);
width = 144;
}
);
unicode = 0042;
},
{
glyphname = C;
lastChange = "2013-06-29 05:10:47 +0100";
layers = (
{
layerId = "940E2F63-624A-4C3D-A909-721782B4CF41";
name = Regular;
paths = (
{
closed = 1;
nodes = (
"8 32 LINE",
"40 32 LINE",
"40 96 LINE",
"8 96 LINE"
);
}
);
width = 144;
}
);
unicode = 0043;
},
{
glyphname = D;
lastChange = "2013-06-29 05:11:02 +0100";
layers = (
{
layerId = "940E2F63-624A-4C3D-A909-721782B4CF41";
name = Regular;
paths = (
{
closed = 1;
nodes = (
"8 32 LINE",
"40 32 LINE",
"40 48 LINE",
"8 48 LINE"
);
},
{
closed = 1;
nodes = (
"104 32 LINE",
"136 32 LINE",
"136 96 LINE",
"104 96 LINE"
);
}
);
width = 144;
}
);
unicode = 0044;
},
{
glyphname = E;
lastChange = "2013-06-29 05:11:25 +0100";
layers = (
{
layerId = "940E2F63-624A-4C3D-A909-721782B4CF41";
name = Regular;
paths = (
{
closed = 1;
nodes = (
"8 32 LINE",
"40 32 LINE",
"40 96 LINE",
"8 96 LINE"
);
},
{
closed = 1;
nodes = (
"104 80 LINE",
"136 80 LINE",
"136 96 LINE",
"104 96 LINE"
);
}
);
width = 144;
}
);
unicode = 0045;
},
{
glyphname = F;
lastChange = "2013-06-29 05:11:49 +0100";
layers = (
{
layerId = "940E2F63-624A-4C3D-A909-721782B4CF41";
name = Regular;
paths = (
{
closed = 1;
nodes = (
"8 32 LINE",
"40 32 LINE",
"40 96 LINE",
"8 96 LINE"
);
}
);
width = 144;
}
);
unicode = 0046;
},
{
glyphname = H;
lastChange = "2013-06-29 05:12:01 +0100";
layers = (
{
layerId = "940E2F63-624A-4C3D-A909-721782B4CF41";
name = Regular;
paths = (
{
closed = 1;
nodes = (
"8 32 LINE",
"40 32 LINE",
"40 96 LINE",
"8 96 LINE"
);
},
{
closed = 1;
nodes = (
"104 32 LINE",
"136 32 LINE",
"136 96 LINE",
"104 96 LINE"
);
}
);
width = 144;
}
);
unicode = 0048;
},
{
glyphname = I;
lastChange = "2013-06-29 05:12:12 +0100";
layers = (
{
layerId = "940E2F63-624A-4C3D-A909-721782B4CF41";
name = Regular;
paths = (
{
closed = 1;
nodes = (
"56 32 LINE",
"88 32 LINE",
"88 96 LINE",
"56 96 LINE"
);
}
);
width = 144;
}
);
unicode = 0049;
},
{
glyphname = J;
lastChange = "2013-06-29 05:12:22 +0100";
layers = (
{
layerId = "940E2F63-624A-4C3D-A909-721782B4CF41";
name = Regular;
paths = (
{
closed = 1;
nodes = (
"104 32 LINE",
"136 32 LINE",
"136 96 LINE",
"104 96 LINE"
);
}
);
width = 144;
}
);
unicode = 004A;
},
{
glyphname = K;
lastChange = "2013-06-29 05:12:49 +0100";
layers = (
{
layerId = "940E2F63-624A-4C3D-A909-721782B4CF41";
name = Regular;
paths = (
{
closed = 1;
nodes = (
"8 32 LINE",
"40 32 LINE",
"40 96 LINE",
"8 96 LINE"
);
},
{
closed = 1;
nodes = (
"56 80 LINE",
"88 80 LINE",
"88 96 LINE",
"56 96 LINE"
);
},
{
closed = 1;
nodes = (
"104 32 LINE",
"136 32 LINE",
"136 48 LINE",
"104 48 LINE"
);
}
);
width = 144;
}
);
unicode = 004B;
},
{
glyphname = L;
lastChange = "2013-06-29 05:13:11 +0100";
layers = (
{
layerId = "940E2F63-624A-4C3D-A909-721782B4CF41";
name = Regular;
paths = (
{
closed = 1;
nodes = (
"8 32 LINE",
"40 32 LINE",
"40 96 LINE",
"8 96 LINE"
);
}
);
width = 144;
}
);
unicode = 004C;
},
{
glyphname = M;
lastChange = "2013-06-29 05:13:22 +0100";
layers = (
{
layerId = "940E2F63-624A-4C3D-A909-721782B4CF41";
name = Regular;
paths = (
{
closed = 1;
nodes = (
"8 32 LINE",
"40 32 LINE",
"40 96 LINE",
"8 96 LINE"
);
},
{
closed = 1;
nodes = (
"56 32 LINE",
"88 32 LINE",
"88 96 LINE",
"56 96 LINE"
);
},
{
closed = 1;
nodes = (
"104 32 LINE",
"136 32 LINE",
"136 96 LINE",
"104 96 LINE"
);
}
);
width = 144;
}
);
unicode = 004D;
},
{
glyphname = N;
lastChange = "2013-06-29 05:13:30 +0100";
layers = (
{
layerId = "940E2F63-624A-4C3D-A909-721782B4CF41";
name = Regular;
paths = (
{
closed = 1;
nodes = (
"8 32 LINE",
"40 32 LINE",
"40 96 LINE",
"8 96 LINE"
);
},
{
closed = 1;
nodes = (
"56 32 LINE",
"88 32 LINE",
"88 96 LINE",
"56 96 LINE"
);
},
{
closed = 1;
nodes = (
"104 32 LINE",
"136 32 LINE",
"136 96 LINE",
"104 96 LINE"
);
}
);
width = 144;
}
);
unicode = 004E;
},
{
glyphname = O;
lastChange = "2013-06-29 05:13:57 +0100";
layers = (
{
layerId = "940E2F63-624A-4C3D-A909-721782B4CF41";
name = Regular;
paths = (
{
closed = 1;
nodes = (
"8 32 LINE",
"40 32 LINE",
"40 96 LINE",
"8 96 LINE"
);
},
{
closed = 1;
nodes = (
"104 32 LINE",
"136 32 LINE",
"136 96 LINE",
"104 96 LINE"
);
}
);
width = 144;
}
);
unicode = 004F;
},
{
glyphname = P;
lastChange = "2013-06-29 05:14:14 +0100";
layers = (
{
layerId = "940E2F63-624A-4C3D-A909-721782B4CF41";
name = Regular;
paths = (
{
closed = 1;
nodes = (
"8 32 LINE",
"40 32 LINE",
"40 96 LINE",
"8 96 LINE"
);
},
{
closed = 1;
nodes = (
"104 80 LINE",
"136 80 LINE",
"136 96 LINE",
"104 96 LINE"
);
}
);
width = 144;
}
);
unicode = 0050;
},
{
glyphname = Q;
lastChange = "2013-06-29 05:23:57 +0100";
layers = (
{
layerId = "940E2F63-624A-4C3D-A909-721782B4CF41";
name = Regular;
paths = (
{
closed = 1;
nodes = (
"8 32 LINE",
"40 32 LINE",
"40 96 LINE",
"8 96 LINE"
);
},
{
closed = 1;
nodes = (
"104 32 LINE",
"136 32 LINE",
"136 96 LINE",
"104 96 LINE"
);
},
{
closed = 1;
nodes = (
"56 32 LINE",
"88 32 LINE",
"88 48 LINE",
"56 48 LINE"
);
}
);
width = 144;
}
);
unicode = 0051;
},
{
glyphname = R;
lastChange = "2013-06-29 05:20:40 +0100";
layers = (
{
layerId = "940E2F63-624A-4C3D-A909-721782B4CF41";
name = Regular;
paths = (
{
closed = 1;
nodes = (
"8 32 LINE",
"40 32 LINE",
"40 96 LINE",
"8 96 LINE"
);
},
{
closed = 1;
nodes = (
"56 32 LINE",
"88 32 LINE",
"88 48 LINE",
"56 48 LINE"
);
},
{
closed = 1;
nodes = (
"104 80 LINE",
"136 80 LINE",
"136 96 LINE",
"104 96 LINE"
);
}
);
width = 144;
}
);
unicode = 0052;
},
{
glyphname = S;
lastChange = "2013-06-29 05:23:20 +0100";
layers = (
{
layerId = "940E2F63-624A-4C3D-A909-721782B4CF41";
name = Regular;
paths = (
{
closed = 1;
nodes = (
"8 80 LINE",
"40 80 LINE",
"40 96 LINE",
"8 96 LINE"
);
},
{
closed = 1;
nodes = (
"104 32 LINE",
"136 32 LINE",
"136 48 LINE",
"104 48 LINE"
);
}
);
width = 144;
}
);
unicode = 0053;
},
{
glyphname = T;
lastChange = "2013-06-29 05:24:11 +0100";
layers = (
{
layerId = "940E2F63-624A-4C3D-A909-721782B4CF41";
name = Regular;
paths = (
{
closed = 1;
nodes = (
"56 32 LINE",
"88 32 LINE",
"88 96 LINE",
"56 96 LINE"
);
}
);
width = 144;
}
);
unicode = 0054;
},
{
glyphname = U;
lastChange = "2013-06-29 05:21:09 +0100";
layers = (
{
layerId = "940E2F63-624A-4C3D-A909-721782B4CF41";
name = Regular;
paths = (
{
closed = 1;
nodes = (
"8 32 LINE",
"40 32 LINE",
"40 96 LINE",
"8 96 LINE"
);
},
{
closed = 1;
nodes = (
"104 32 LINE",
"136 32 LINE",
"136 96 LINE",
"104 96 LINE"
);
}
);
width = 144;
}
);
unicode = 0055;
},
{
glyphname = V;
lastChange = "2013-06-29 05:21:18 +0100";
layers = (
{
layerId = "940E2F63-624A-4C3D-A909-721782B4CF41";
name = Regular;
paths = (
{
closed = 1;
nodes = (
"8 32 LINE",
"40 32 LINE",
"40 96 LINE",
"8 96 LINE"
);
},
{
closed = 1;
nodes = (
"104 80 LINE",
"136 80 LINE",
"136 96 LINE",
"104 96 LINE"
);
},
{
closed = 1;
nodes = (
"56 32 LINE",
"88 32 LINE",
"88 48 LINE",
"56 48 LINE"
);
}
);
width = 144;
}
);
unicode = 0056;
},
{
glyphname = X;
lastChange = "2013-06-29 05:24:51 +0100";
layers = (
{
layerId = "940E2F63-624A-4C3D-A909-721782B4CF41";
name = Regular;
paths = (
{
closed = 1;
nodes = (
"8 80 LINE",
"40 80 LINE",
"40 96 LINE",
"8 96 LINE"
);
},
{
closed = 1;
nodes = (
"104 32 LINE",
"136 32 LINE",
"136 48 LINE",
"104 48 LINE"
);
},
{
closed = 1;
nodes = (
"56 32 LINE",
"88 32 LINE",
"88 96 LINE",
"56 96 LINE"
);
}
);
width = 144;
}
);
unicode = 0058;
},
{
glyphname = Y;
lastChange = "2013-06-29 05:22:42 +0100";
layers = (
{
layerId = "940E2F63-624A-4C3D-A909-721782B4CF41";
name = Regular;
paths = (
{
closed = 1;
nodes = (
"8 80 LINE",
"40 80 LINE",
"40 96 LINE",
"8 96 LINE"
);
},
{
closed = 1;
nodes = (
"104 32 LINE",
"136 32 LINE",
"136 96 LINE",
"104 96 LINE"
);
}
);
width = 144;
}
);
unicode = 0059;
},
{
glyphname = Z;
lastChange = "2013-06-29 05:27:25 +0100";
layers = (
{
layerId = "940E2F63-624A-4C3D-A909-721782B4CF41";
name = Regular;
paths = (
{
closed = 1;
nodes = (
"104 96 LINE",
"104 80 LINE",
"136 80 LINE",
"136 96 LINE"
);
},
{
closed = 1;
nodes = (
"8 48 LINE",
"8 32 LINE",
"40 32 LINE",
"40 48 LINE"
);
}
);
width = 144;
}
);
unicode = 005A;
},
{
glyphname = one;
lastChange = "2013-06-29 05:28:15 +0100";
layers = (
{
layerId = "940E2F63-624A-4C3D-A909-721782B4CF41";
name = Regular;
paths = (
{
closed = 1;
nodes = (
"56 32 LINE",
"88 32 LINE",
"88 96 LINE",
"56 96 LINE"
);
}
);
width = 144;
}
);
unicode = 0031;
},
{
glyphname = three;
lastChange = "2013-06-29 05:31:22 +0100";
layers = (
{
layerId = "940E2F63-624A-4C3D-A909-721782B4CF41";
name = Regular;
paths = (
{
closed = 1;
nodes = (
"104 80 LINE",
"136 80 LINE",
"136 96 LINE",
"104 96 LINE"
);
},
{
closed = 1;
nodes = (
"104 32 LINE",
"136 32 LINE",
"136 48 LINE",
"104 48 LINE"
);
}
);
width = 144;
}
);
unicode = 0033;
},
{
glyphname = four;
lastChange = "2013-06-29 05:29:14 +0100";
layers = (
{
layerId = "940E2F63-624A-4C3D-A909-721782B4CF41";
name = Regular;
paths = (
{
closed = 1;
nodes = (
"8 80 LINE",
"40 80 LINE",
"40 96 LINE",
"8 96 LINE"
);
},
{
closed = 1;
nodes = (
"104 32 LINE",
"136 32 LINE",
"136 96 LINE",
"104 96 LINE"
);
}
);
width = 144;
}
);
unicode = 0034;
},
{
glyphname = seven;
lastChange = "2013-06-29 05:29:40 +0100";
layers = (
{
layerId = "940E2F63-624A-4C3D-A909-721782B4CF41";
name = Regular;
paths = (
{
closed = 1;
nodes = (
"56 32 LINE",
"88 32 LINE",
"88 48 LINE",
"56 48 LINE"
);
},
{
closed = 1;
nodes = (
"104 80 LINE",
"136 80 LINE",
"136 96 LINE",
"104 96 LINE"
);
}
);
width = 144;
}
);
unicode = 0037;
},
{
glyphname = eight;
lastChange = "2013-06-29 05:30:00 +0100";
layers = (
{
layerId = "940E2F63-624A-4C3D-A909-721782B4CF41";
name = Regular;
paths = (
{
closed = 1;
nodes = (
"8 32 LINE",
"40 32 LINE",
"40 96 LINE",
"8 96 LINE"
);
},
{
closed = 1;
nodes = (
"104 32 LINE",
"136 32 LINE",
"136 96 LINE",
"104 96 LINE"
);
}
);
width = 144;
}
);
unicode = 0038;
},
{
glyphname = asterisk;
lastChange = "2013-06-29 05:30:17 +0100";
layers = (
{
layerId = "940E2F63-624A-4C3D-A909-721782B4CF41";
name = Regular;
paths = (
{
closed = 1;
nodes = (
"88 96 LINE",
"56 96 LINE",
"56 32 LINE",
"88 32 LINE"
);
}
);
width = 144;
}
);
unicode = 002A;
},
{
glyphname = backslash;
lastChange = "2013-06-29 05:31:49 +0100";
layers = (
{
layerId = "940E2F63-624A-4C3D-A909-721782B4CF41";
name = Regular;
paths = (
{
closed = 1;
nodes = (
"8 32 LINE",
"40 32 LINE",
"40 96 LINE",
"8 96 LINE"
);
},
{
closed = 1;
nodes = (
"56 32 LINE",
"88 32 LINE",
"88 96 LINE",
"56 96 LINE"
);
},
{
closed = 1;
nodes = (
"104 32 LINE",
"136 32 LINE",
"136 96 LINE",
"104 96 LINE"
);
}
);
width = 144;
}
);
unicode = 005C;
},
{
glyphname = comma;
lastChange = "2013-06-29 05:32:03 +0100";
layers = (
{
layerId = "940E2F63-624A-4C3D-A909-721782B4CF41";
name = Regular;
paths = (
{
closed = 1;
nodes = (
"8 32 LINE",
"40 32 LINE",
"40 96 LINE",
"8 96 LINE"
);
},
{
closed = 1;
nodes = (
"56 32 LINE",
"88 32 LINE",
"88 96 LINE",
"56 96 LINE"
);
},
{
closed = 1;
nodes = (
"104 32 LINE",
"136 32 LINE",
"136 96 LINE",
"104 96 LINE"
);
}
);
width = 144;
}
);
unicode = 002C;
},
{
glyphname = exclam;
lastChange = "2013-06-29 05:32:16 +0100";
layers = (
{
layerId = "940E2F63-624A-4C3D-A909-721782B4CF41";
name = Regular;
paths = (
{
closed = 1;
nodes = (
"136 96 LINE",
"104 96 LINE",
"104 48 LINE",
"136 48 LINE"
);
},
{
closed = 1;
nodes = (
"88 96 LINE",
"56 96 LINE",
"56 48 LINE",
"88 48 LINE"
);
},
{
closed = 1;
nodes = (
"40 96 LINE",
"8 96 LINE",
"8 48 LINE",
"40 48 LINE"
);
}
);
width = 144;
}
);
unicode = 0021;
},
{
glyphname = question;
lastChange = "2013-06-29 05:33:13 +0100";
layers = (
{
layerId = "940E2F63-624A-4C3D-A909-721782B4CF41";
name = Regular;
paths = (
{
closed = 1;
nodes = (
"104 80 LINE",
"136 80 LINE",
"136 96 LINE",
"104 96 LINE"
);
}
);
width = 144;
}
);
unicode = 003F;
},
{
glyphname = braceleft;
lastChange = "2013-06-29 05:33:49 +0100";
layers = (
{
layerId = "940E2F63-624A-4C3D-A909-721782B4CF41";
name = Regular;
paths = (
{
closed = 1;
nodes = (
"56 32 LINE",
"88 32 LINE",
"88 96 LINE",
"56 96 LINE"
);
}
);
width = 144;
}
);
unicode = 007B;
},
{
color = 0;
glyphname = dollar;
lastChange = "2013-12-01 20:41:20 +0000";
layers = (
{
components = (
{
name = s;
transform = "{1, 0, 0, 1, 0, 0}";
}
);
layerId = "940E2F63-624A-4C3D-A909-721782B4CF41";
name = Regular;
paths = (
{
closed = 1;
nodes = (
"56 32 LINE",
"88 32 LINE",
"88 96 LINE",
"56 96 LINE"
);
}
);
width = 144;
}
);
unicode = 0024;
},
{
color = 0;
glyphname = sterling;
lastChange = "2013-12-01 20:42:11 +0000";
layers = (
{
layerId = "940E2F63-624A-4C3D-A909-721782B4CF41";
name = Regular;
paths = (
{
closed = 1;
nodes = (
"8 32 LINE",
"40 32 LINE",
"40 48 LINE",
"8 48 LINE"
);
},
{
closed = 1;
nodes = (
"56 80 LINE",
"88 80 LINE",
"88 96 LINE",
"56 96 LINE"
);
}
);
width = 144;
}
);
unicode = 00A3;
},
{
color = 0;
glyphname = percent;
lastChange = "2013-12-01 20:44:09 +0000";
layers = (
{
layerId = "940E2F63-624A-4C3D-A909-721782B4CF41";
name = Regular;
paths = (
{
closed = 1;
nodes = (
"8 32 LINE",
"40 32 LINE",
"40 48 LINE",
"8 48 LINE"
);
},
{
closed = 1;
nodes = (
"104 80 LINE",
"136 80 LINE",
"136 96 LINE",
"104 96 LINE"
);
}
);
width = 144;
}
);
unicode = 0025;
},
{
glyphname = plus;
lastChange = "2013-06-29 05:36:40 +0100";
layers = (
{
layerId = "940E2F63-624A-4C3D-A909-721782B4CF41";
name = Regular;
paths = (
{
closed = 1;
nodes = (
"56 32 LINE",
"88 32 LINE",
"88 96 LINE",
"56 96 LINE"
);
}
);
width = 144;
}
);
unicode = 002B;
},
{
glyphname = ampersand;
lastChange = "2013-06-29 05:36:28 +0100";
layers = (
{
layerId = "940E2F63-624A-4C3D-A909-721782B4CF41";
name = Regular;
paths = (
{
closed = 1;
nodes = (
"104 80 LINE",
"136 80 LINE",
"136 96 LINE",
"104 96 LINE"
);
},
{
closed = 1;
nodes = (
"56 80 LINE",
"88 80 LINE",
"88 96 LINE",
"56 96 LINE"
);
},
{
closed = 1;
nodes = (
"8 32 LINE",
"40 32 LINE",
"40 48 LINE",
"8 48 LINE"
);
}
);
width = 144;
}
);
unicode = 0026;
},
{
color = 0;
glyphname = asciicircum;
lastChange = "2013-12-01 20:44:54 +0000";
layers = (
{
layerId = "940E2F63-624A-4C3D-A909-721782B4CF41";
name = Regular;
paths = (
{
closed = 1;
nodes = (
"8 32 LINE",
"40 32 LINE",
"40 48 LINE",
"8 48 LINE"
);
},
{
closed = 1;
nodes = (
"56 80 LINE",
"88 80 LINE",
"88 96 LINE",
"56 96 LINE"
);
},
{
closed = 1;
nodes = (
"104 32 LINE",
"136 32 LINE",
"136 48 LINE",
"104 48 LINE"
);
}
);
width = 144;
}
);
unicode = 005E;
},
{
glyphname = degree;
lastChange = "2013-06-29 05:37:07 +0100";
layers = (
{
layerId = "940E2F63-624A-4C3D-A909-721782B4CF41";
name = Regular;
paths = (
{
closed = 1;
nodes = (
"8 80 LINE",
"40 80 LINE",
"40 96 LINE",
"8 96 LINE"
);
},
{
closed = 1;
nodes = (
"56 80 LINE",
"88 80 LINE",
"88 96 LINE",
"56 96 LINE"
);
},
{
closed = 1;
nodes = (
"104 32 LINE",
"136 32 LINE",
"136 48 LINE",
"104 48 LINE"
);
}
);
width = 144;
}
);
unicode = 00B0;
},
